<svg width="690" height="60" viewBox="0 0 690 60" fill="none" xmlns="http://www.w3.org/2000/svg">
<g filter="url(#filter0_d_1009_12544)">
<mask id="path-2-inside-1_1009_12544" fill="white">
<path fill-rule="evenodd" clip-rule="evenodd" d="M2 5C2 2.79086 3.79087 1 6.00001 1H281.679C283.114 1 284.44 1.76914 285.152 3.01544L298.866 27.0154C299.569 28.2452 299.569 29.7548 298.866 30.9846L285.152 54.9846C284.44 56.2309 283.114 57 281.679 57H6C3.79086 57 2 55.2091 2 53V5Z"/>
</mask>
<path fill-rule="evenodd" clip-rule="evenodd" d="M2 5C2 2.79086 3.79087 1 6.00001 1H281.679C283.114 1 284.44 1.76914 285.152 3.01544L298.866 27.0154C299.569 28.2452 299.569 29.7548 298.866 30.9846L285.152 54.9846C284.44 56.2309 283.114 57 281.679 57H6C3.79086 57 2 55.2091 2 53V5Z" fill="#EBF8FF"/>
<path d="M298.866 27.0154L299.734 26.5193V26.5193L298.866 27.0154ZM298.866 30.9846L299.734 31.4807V31.4807L298.866 30.9846ZM285.152 54.9846L286.02 55.4807L285.152 54.9846ZM285.152 3.01544L286.02 2.51931L285.152 3.01544ZM281.679 0H6.00001V2H281.679V0ZM284.283 3.51158L297.998 27.5116L299.734 26.5193L286.02 2.51931L284.283 3.51158ZM297.998 27.5116C298.525 28.4339 298.525 29.5661 297.998 30.4884L299.734 31.4807C300.613 29.9435 300.613 28.0565 299.734 26.5193L297.998 27.5116ZM297.998 30.4884L284.283 54.4884L286.02 55.4807L299.734 31.4807L297.998 30.4884ZM6 58H281.679V56H6V58ZM1 5V53H3V5H1ZM284.283 54.4884C283.749 55.4231 282.755 56 281.679 56V58C283.473 58 285.13 57.0386 286.02 55.4807L284.283 54.4884ZM6.00001 0C3.23858 0 1 2.23857 1 5H3C3 3.34315 4.34315 2 6.00001 2V0ZM6 56C4.34315 56 3 54.6569 3 53H1C1 55.7614 3.23858 58 6 58V56ZM281.679 2C282.755 2 283.749 2.57686 284.283 3.51158L286.02 2.51931C285.13 0.961431 283.473 0 281.679 0V2Z" fill="#4299E1" mask="url(#path-2-inside-1_1009_12544)"/>
</g>
<path d="M34 37.472C38.128 37.472 41.536 34.128 41.536 29.92C41.536 25.76 38.16 22.384 34 22.384C29.824 22.384 26.448 25.76 26.448 29.92C26.448 34.096 29.824 37.472 34 37.472ZM34 36.88C30.16 36.88 27.04 33.76 27.04 29.92C27.04 26.112 30.128 22.976 34 22.976C37.84 22.976 40.944 26.08 40.944 29.92C40.944 33.76 37.84 36.88 34 36.88ZM33.344 34.048H35.376V25.648H33.856C33.216 26.016 32.56 26.256 31.6 26.432V27.712H33.344V34.048ZM48.201 36H51.097L52.393 30.144C52.569 29.232 52.745 28.304 52.905 27.408H52.969C53.113 28.304 53.273 29.232 53.481 30.144L54.793 36H57.753L59.945 24.16H57.705L56.745 29.936C56.585 31.184 56.393 32.448 56.233 33.728H56.153C55.881 32.448 55.657 31.168 55.401 29.936L54.025 24.16H51.993L50.633 29.936C50.377 31.184 50.121 32.448 49.881 33.728H49.817C49.625 32.448 49.449 31.184 49.257 29.936L48.329 24.16H45.913L48.201 36ZM63.3935 36.224C64.4175 36.224 65.3135 35.728 66.0975 35.056H66.1615L66.3375 36H68.2575V30.784C68.2575 28.176 67.0895 26.832 64.8175 26.832C63.3935 26.832 62.1295 27.36 61.0735 28L61.9215 29.568C62.7375 29.072 63.5535 28.72 64.3855 28.72C65.4895 28.72 65.8575 29.376 65.9055 30.256C62.3055 30.656 60.7535 31.664 60.7535 33.568C60.7535 35.104 61.7935 36.224 63.3935 36.224ZM64.1615 34.384C63.4735 34.384 62.9935 34.08 62.9935 33.392C62.9935 32.576 63.7135 31.984 65.9055 31.712V33.52C65.3295 34.08 64.8335 34.384 64.1615 34.384ZM72.8626 36.224C73.4226 36.224 73.7906 36.128 74.0626 36.032L73.7746 34.288C73.6146 34.32 73.5506 34.32 73.4706 34.32C73.2466 34.32 73.0066 34.144 73.0066 33.584V23.248H70.6546V33.488C70.6546 35.152 71.2146 36.224 72.8626 36.224ZM77.9095 36.224C78.4695 36.224 78.8375 36.128 79.1095 36.032L78.8215 34.288C78.6615 34.32 78.5975 34.32 78.5175 34.32C78.2935 34.32 78.0535 34.144 78.0535 33.584V23.248H75.7015V33.488C75.7015 35.152 76.2615 36.224 77.9095 36.224ZM84.6524 36.224C85.7564 36.224 86.8764 35.856 87.7564 35.248L86.9724 33.792C86.3164 34.192 85.6764 34.416 84.9564 34.416C83.6284 34.416 82.6684 33.664 82.4604 32.192H87.9964C88.0444 31.968 88.0924 31.552 88.0924 31.104C88.0924 28.624 86.8284 26.832 84.3484 26.832C82.2364 26.832 80.1884 28.624 80.1884 31.536C80.1884 34.496 82.1404 36.224 84.6524 36.224ZM82.4284 30.624C82.6204 29.312 83.4524 28.64 84.3964 28.64C85.5484 28.64 86.0924 29.408 86.0924 30.624H82.4284ZM93.0436 36.224C93.8436 36.224 94.4676 36.048 94.9476 35.888L94.5636 34.176C94.3076 34.272 93.9716 34.384 93.6676 34.384C92.8836 34.384 92.4516 33.904 92.4516 32.88V28.896H94.6756V27.056H92.4516V24.624H90.4996L90.2436 27.056L88.8516 27.152V28.896H90.0996V32.88C90.0996 34.88 90.9156 36.224 93.0436 36.224ZM102.642 31.632V32.992H108.178V31.632H102.642ZM100.674 23.504V24.88H110.226V23.504H100.674ZM101.106 25.52V26.816H109.778V25.52H101.106ZM100.178 27.488V28.864H110.722V27.488H100.178ZM102.658 33.712V35.04H108.21V33.712H102.658ZM101.25 29.488V37.456H103.026V30.88H108.098V29.488H101.25ZM107.826 29.488V35.568C107.826 35.76 107.746 35.824 107.538 35.824C107.314 35.84 106.546 35.84 105.906 35.808C106.114 36.256 106.354 36.96 106.418 37.44C107.538 37.44 108.322 37.424 108.898 37.152C109.474 36.896 109.634 36.432 109.634 35.6V29.488H107.826ZM104.434 22.416V27.936H106.338V22.416H104.434ZM97.554 22.416V37.44H99.282V22.416H97.554ZM96.178 25.584C96.082 26.88 95.858 28.672 95.506 29.776L96.914 30.256C97.234 29.008 97.49 27.088 97.522 25.744L96.178 25.584ZM99.026 25.088C99.346 25.856 99.73 26.864 99.89 27.488L101.138 26.896C100.962 26.304 100.546 25.328 100.21 24.592L99.026 25.088ZM120.29 28.608V30.128H125.186V28.608H120.29ZM119.346 23.088V37.44H121.074V24.768H125.234V23.088H119.346ZM124.258 23.088V26.08C124.258 26.256 124.194 26.304 123.938 26.32C123.714 26.32 122.834 26.32 122.05 26.288C122.274 26.752 122.514 27.44 122.578 27.936C123.762 27.936 124.626 27.92 125.25 27.664C125.874 27.408 126.034 26.928 126.034 26.112V23.088H124.258ZM122.306 29.728L120.866 30.096C121.778 33.296 123.346 36.032 125.714 37.456C126.002 36.976 126.562 36.288 126.978 35.936C124.722 34.8 123.106 32.384 122.306 29.728ZM124.626 28.608V28.976C124.226 31.872 122.898 34.64 120.706 36.16C121.122 36.48 121.682 37.04 121.97 37.472C124.37 35.696 125.842 32.592 126.418 28.944L125.266 28.528L124.962 28.608H124.626ZM112.306 23.84V25.424H118.45V23.84H112.306ZM112.194 32.864V34.48H118.626V32.864H112.194ZM111.73 26.528V28.144H119.042V26.528H111.73ZM112.05 30V31.616H118.802V30H112.05ZM114.578 22.464V27.136H116.354V22.464H114.578ZM114.578 30.672V37.392H116.354V30.672H114.578ZM116.754 27.904C116.626 28.48 116.354 29.312 116.13 29.856L117.49 30.24C117.746 29.744 118.018 29.024 118.338 28.288L116.754 27.904ZM112.738 28.288C113.01 28.928 113.25 29.76 113.314 30.272L114.818 29.856C114.754 29.36 114.466 28.528 114.162 27.936L112.738 28.288ZM140.578 26.672L139.458 24.832C139.042 25.168 138.594 25.44 137.986 25.792C137.01 26.352 134.994 27.344 133.474 28.352C131.57 29.6 130.082 31.024 130.082 33.056C130.082 35.808 132.498 36.704 135.698 36.704C137.778 36.704 139.458 36.528 140.834 36.304L140.85 34C139.426 34.336 137.266 34.592 135.634 34.592C133.41 34.592 132.29 33.968 132.29 32.816C132.29 31.712 133.186 30.784 134.514 29.92C135.986 28.976 137.986 28.032 138.978 27.536C139.57 27.248 140.082 26.96 140.578 26.672ZM132.53 23.248L130.514 24.08C131.394 26.144 132.354 28.24 133.234 29.696L135.058 28.64C134.306 27.296 133.298 25.376 132.53 23.248ZM149.65 28.256C148.962 30.544 147.666 33.488 146.514 35.424L148.29 35.984C149.474 34.144 150.898 31.328 151.954 28.816L149.65 28.256ZM144.658 34.832L144.914 36.864C147.954 36.704 152.402 36.464 156.514 36.176L156.562 34.304C152.37 34.512 147.682 34.736 144.658 34.832ZM152.754 31.792C154.098 33.552 155.65 35.984 156.322 37.52L158.306 36.464C157.538 34.928 156.034 32.656 154.626 30.928L152.754 31.792ZM147.954 22.784C147.122 25.008 145.602 27.2 143.938 28.512C144.466 28.832 145.394 29.536 145.81 29.936C147.442 28.4 149.122 25.92 150.146 23.392L147.954 22.784ZM154.402 22.8L152.482 23.584C153.666 25.808 155.506 28.336 157.01 29.952C157.378 29.44 158.114 28.672 158.642 28.272C157.17 26.928 155.346 24.688 154.402 22.8ZM163.362 29.536V31.056H171.122V29.536H163.362ZM163.122 32.272V33.84H171.378V32.272H163.122ZM167.922 30.016V37.152H169.602V30.016H167.922ZM164.802 30.08V33.136C164.802 33.952 164.45 35.504 163.09 36.336C163.49 36.592 164.066 37.104 164.322 37.44C166.002 36.288 166.434 34.176 166.434 33.152V30.08H164.802ZM161.458 25.216V26.464H165.49V25.216H161.458ZM168.882 25.216V26.464H172.93V25.216H168.882ZM172.178 23.024V35.184C172.178 35.424 172.098 35.52 171.842 35.52C171.602 35.52 170.802 35.52 170.098 35.488C170.354 35.984 170.61 36.88 170.658 37.392C171.89 37.408 172.722 37.36 173.314 37.04C173.89 36.72 174.066 36.176 174.066 35.216V23.024H172.178ZM161.634 23.024V24.4H164.898V27.344H161.634V28.72H166.706V23.024H161.634ZM173.154 23.024H167.746V28.752H173.154V27.376H169.57V24.4H173.154V23.024ZM160.498 23.024V37.44H162.386V23.024H160.498ZM177.698 23.376V37.248H179.682V25.312H186.802V37.232H188.866V23.376H177.698ZM179.058 28.752V30.656H187.666V28.752H179.058ZM179.042 34.272V36.208H187.666V34.272H179.042ZM200.706 25.04L198.514 24.976C198.354 26.656 198.002 28.496 197.538 30C196.866 32.16 196.258 33.184 195.57 33.184C194.962 33.184 194.322 32.4 194.322 30.784C194.322 28.768 196.178 26 199.57 26C202.338 26 203.906 27.792 203.906 30.304C203.906 32.656 202.306 34.112 200.274 34.608C199.842 34.704 199.394 34.784 198.77 34.864L199.986 36.752C204.018 36.128 206.082 33.744 206.082 30.384C206.082 26.88 203.57 24.128 199.618 24.128C195.474 24.128 192.258 27.296 192.258 30.976C192.258 33.68 193.73 35.648 195.522 35.648C197.266 35.648 198.642 33.664 199.602 30.432C200.162 28.544 200.482 26.672 200.706 25.04ZM214.994 22.88V24.784C214.994 25.872 214.834 27.152 213.378 28.112C213.762 28.352 214.53 28.992 214.802 29.344C216.482 28.192 216.818 26.336 216.818 24.832V22.88H214.994ZM218.594 22.88V26.496C218.594 28.096 218.978 28.592 220.258 28.592C220.514 28.592 220.946 28.592 221.202 28.592C222.258 28.592 222.706 28.032 222.866 26.032C222.386 25.92 221.634 25.632 221.298 25.36C221.266 26.752 221.202 26.96 221.01 26.96C220.914 26.96 220.674 26.96 220.594 26.96C220.418 26.96 220.402 26.912 220.402 26.464V22.88H218.594ZM216.514 31.04L214.818 31.584C216.194 34.448 218.45 36.48 221.65 37.424C221.906 36.944 222.466 36.16 222.898 35.776C219.89 35.04 217.602 33.312 216.514 31.04ZM220.098 29.312V29.6C219.266 32.848 216.722 34.928 213.394 35.744C213.746 36.144 214.226 36.944 214.418 37.424C218.162 36.288 220.93 33.984 222.034 29.696L220.786 29.248L220.45 29.312H220.098ZM214.226 29.312V31.04H220.85V29.312H214.226ZM215.73 22.88V24.56H219.57V22.88H215.73ZM208.498 27.328V28.768H213.442V27.328H208.498ZM208.546 22.912V24.368H213.41V22.912H208.546ZM208.498 29.504V30.96H213.442V29.504H208.498ZM207.714 25.072V26.592H214.018V25.072H207.714ZM209.378 31.728V33.248H211.778V35.072H209.378V36.592H213.426V31.728H209.378ZM208.45 31.728V37.232H210.066V31.728H208.45ZM226.818 27.248V29.072H235.666V27.248H226.818ZM231.234 31.088V32.88H236.642V31.088H231.234ZM230.226 28.304V35.792L232.242 36.032V28.304H230.226ZM226.402 29.968C226.13 32.72 225.33 34.944 223.602 36.224C224.05 36.512 224.866 37.2 225.186 37.536C227.01 35.968 228.002 33.424 228.418 30.176L226.402 29.968ZM227.954 31.968L226.386 32.496C227.762 36.528 230.258 37.28 233.954 37.28H237.986C238.066 36.704 238.386 35.776 238.658 35.328C237.586 35.36 234.914 35.36 234.066 35.36C231.218 35.36 228.978 34.912 227.954 31.968ZM230.194 22.432V25.36H232.242V22.432H230.194ZM224.37 24.048V28.064H226.258V25.872H236.146V28.064H238.13V24.048H224.37Z" fill="#2C5282"/>
<g filter="url(#filter1_d_1009_12544)">
<mask id="path-5-inside-2_1009_12544" fill="white">
<path fill-rule="evenodd" clip-rule="evenodd" d="M487.152 3.01544C486.439 1.76914 485.114 1 483.679 1H298.893C295.821 1 293.896 4.31793 295.42 6.98456L306.866 27.0154C307.569 28.2452 307.569 29.7548 306.866 30.9846L295.42 51.0154C293.896 53.6821 295.821 57 298.893 57H483.679C485.114 57 486.439 56.2309 487.152 54.9846L500.866 30.9846C501.569 29.7548 501.569 28.2452 500.866 27.0154L487.152 3.01544Z"/>
</mask>
<path fill-rule="evenodd" clip-rule="evenodd" d="M487.152 3.01544C486.439 1.76914 485.114 1 483.679 1H298.893C295.821 1 293.896 4.31793 295.42 6.98456L306.866 27.0154C307.569 28.2452 307.569 29.7548 306.866 30.9846L295.42 51.0154C293.896 53.6821 295.821 57 298.893 57H483.679C485.114 57 486.439 56.2309 487.152 54.9846L500.866 30.9846C501.569 29.7548 501.569 28.2452 500.866 27.0154L487.152 3.01544Z" fill="white"/>
<path d="M306.866 27.0154L305.998 27.5116L305.998 27.5116L306.866 27.0154ZM306.866 30.9846L305.998 30.4884L305.998 30.4884L306.866 30.9846ZM500.866 30.9846L501.734 31.4807L501.734 31.4807L500.866 30.9846ZM500.866 27.0154L501.734 26.5193L501.734 26.5193L500.866 27.0154ZM487.152 3.01544L488.02 2.51931L487.152 3.01544ZM487.152 54.9846L488.02 55.4807L487.152 54.9846ZM298.893 2H483.679V0H298.893V2ZM307.734 26.5193L296.288 6.48842L294.551 7.4807L305.998 27.5116L307.734 26.5193ZM307.734 31.4807C308.613 29.9435 308.613 28.0565 307.734 26.5193L305.998 27.5116C306.525 28.4339 306.525 29.5661 305.998 30.4884L307.734 31.4807ZM296.288 51.5116L307.734 31.4807L305.998 30.4884L294.551 50.5193L296.288 51.5116ZM483.679 56H298.893V58H483.679V56ZM499.998 30.4884L486.283 54.4884L488.02 55.4807L501.734 31.4807L499.998 30.4884ZM499.998 27.5116C500.525 28.4339 500.525 29.5661 499.998 30.4884L501.734 31.4807C502.612 29.9435 502.612 28.0565 501.734 26.5193L499.998 27.5116ZM486.283 3.51158L499.998 27.5116L501.734 26.5193L488.02 2.51931L486.283 3.51158ZM294.551 50.5193C292.647 53.8526 295.054 58 298.893 58V56C296.589 56 295.145 53.5116 296.288 51.5116L294.551 50.5193ZM483.679 2C484.755 2 485.749 2.57686 486.283 3.51158L488.02 2.51931C487.13 0.961431 485.473 0 483.679 0V2ZM483.679 58C485.473 58 487.13 57.0386 488.02 55.4807L486.283 54.4884C485.749 55.4231 484.755 56 483.679 56V58ZM298.893 0C295.054 0 292.647 4.14741 294.551 7.4807L296.288 6.48842C295.145 4.48845 296.589 2 298.893 2V0Z" fill="black" fill-opacity="0.08" mask="url(#path-5-inside-2_1009_12544)"/>
</g>
<path d="M332 37.472C336.128 37.472 339.536 34.128 339.536 29.92C339.536 25.76 336.16 22.384 332 22.384C327.824 22.384 324.448 25.76 324.448 29.92C324.448 34.096 327.824 37.472 332 37.472ZM332 36.88C328.16 36.88 325.04 33.76 325.04 29.92C325.04 26.112 328.128 22.976 332 22.976C335.84 22.976 338.944 26.08 338.944 29.92C338.944 33.76 335.84 36.88 332 36.88ZM329.072 34.048H335.28V32.352H333.568C333.088 32.352 332.448 32.384 331.984 32.416C333.488 31.072 334.96 29.568 334.96 28.096C334.96 26.528 333.792 25.456 331.968 25.456C330.8 25.456 329.792 25.888 328.896 26.8L330 27.888C330.48 27.488 331.04 27.056 331.744 27.056C332.56 27.056 332.992 27.472 332.992 28.288C332.992 29.472 331.424 30.912 329.072 32.88V34.048ZM347.289 23.312V25.264H351.817V23.312H347.289ZM350.873 23.312C350.873 26.576 351.577 33.728 357.673 37.392C358.009 36.912 358.777 36.064 359.225 35.712C353.289 32.24 352.857 26.352 352.857 23.312H350.873ZM350.185 26.816C349.321 31.056 347.401 34.16 344.057 35.856C344.553 36.208 345.449 37.008 345.801 37.424C349.145 35.408 351.273 31.968 352.393 27.216L350.185 26.816ZM360.825 25.744V27.712H373.081V25.744H360.825ZM372.297 25.744V26.128C372.025 32.032 371.705 34.56 371.145 35.104C370.921 35.312 370.729 35.376 370.409 35.376C369.977 35.376 369.033 35.36 368.009 35.28C368.377 35.84 368.649 36.704 368.681 37.264C369.657 37.312 370.649 37.328 371.257 37.232C371.961 37.136 372.425 36.96 372.889 36.352C373.609 35.504 373.929 33.072 374.249 26.672C374.281 26.4 374.297 25.744 374.297 25.744H372.297ZM365.737 22.448V25.744C365.737 28.832 365.289 33.264 360.313 35.968C360.793 36.304 361.513 37.056 361.817 37.52C367.257 34.448 367.769 29.376 367.769 25.744V22.448H365.737ZM382.601 29.536C384.041 30.896 385.913 32.816 386.761 34.016L388.361 32.784C387.417 31.584 385.481 29.76 384.057 28.48L382.601 29.536ZM382.649 22.416V26.24C382.649 28.336 382.377 31.136 378.921 32.912C379.369 33.248 380.025 33.952 380.297 34.368C383.945 32.192 384.617 28.912 384.617 26.256V22.416H382.649ZM377.033 25.072V37.472H378.953V26.96H389.193V25.072H377.033ZM388.345 25.072V35.216C388.345 35.488 388.249 35.584 387.945 35.6C387.641 35.6 386.569 35.6 385.625 35.552C385.881 36.048 386.185 36.928 386.249 37.456C387.673 37.456 388.697 37.44 389.369 37.136C390.025 36.816 390.249 36.288 390.249 35.248V25.072H388.345ZM396.697 25.76C395.913 26.848 394.521 27.872 393.129 28.512C393.513 28.864 394.185 29.648 394.457 30.032C395.945 29.2 397.561 27.824 398.553 26.368L396.697 25.76ZM400.601 26.832C401.977 27.712 403.721 29.024 404.521 29.904L405.977 28.64C405.097 27.744 403.289 26.512 401.945 25.728L400.601 26.832ZM399.689 29.504C401.049 31.184 403.737 33.008 406.009 34C406.329 33.44 406.761 32.736 407.209 32.24C404.761 31.44 402.281 29.84 400.585 27.76H398.617C397.417 29.472 394.905 31.472 392.281 32.512C392.649 32.928 393.129 33.664 393.353 34.128C395.913 33.008 398.409 31.152 399.689 29.504ZM395.129 31.92V37.44H396.985V33.6H402.265V37.424H404.217V31.92H395.129ZM395.993 35.312V36.992H403.241V35.312H395.993ZM398.585 22.416V24.688H400.569V22.416H398.585ZM392.761 23.696V27.152H394.633V25.424H404.521V27.152H406.489V23.696H392.761ZM417.081 25.04L414.889 24.976C414.729 26.656 414.377 28.496 413.913 30C413.241 32.16 412.633 33.184 411.945 33.184C411.337 33.184 410.697 32.4 410.697 30.784C410.697 28.768 412.553 26 415.945 26C418.713 26 420.281 27.792 420.281 30.304C420.281 32.656 418.681 34.112 416.649 34.608C416.217 34.704 415.769 34.784 415.145 34.864L416.361 36.752C420.393 36.128 422.457 33.744 422.457 30.384C422.457 26.88 419.945 24.128 415.993 24.128C411.849 24.128 408.633 27.296 408.633 30.976C408.633 33.68 410.105 35.648 411.897 35.648C413.641 35.648 415.017 33.664 415.977 30.432C416.537 28.544 416.857 26.672 417.081 25.04ZM432.393 30.192V31.584H438.393V30.192H432.393ZM432.393 32.72V34.128H438.393V32.72H432.393ZM432.361 35.248V36.832H439.129V35.248H432.361ZM430.009 23.904V26.832H431.641V25.52H437.353V26.832H439.049V23.904H430.009ZM434.569 28.848V36H436.329V28.848H434.569ZM432.985 27.52H432.809L431.193 29.184V37.456H432.985V29.12H438.745V27.52H432.985ZM433.833 22.4C433.161 25.392 431.737 27.824 429.545 29.264C429.929 29.584 430.585 30.336 430.841 30.704C433.193 28.976 434.793 26.208 435.657 22.736L433.833 22.4ZM435.545 25.904C435.369 26.608 435.001 27.584 434.681 28.24L436.121 28.608C436.473 28.016 436.905 27.152 437.321 26.272L435.545 25.904ZM424.377 23.36V25.104H430.153V23.36H424.377ZM426.185 28.064V29.728H428.281V33.872H426.185V35.52H429.897V28.064H426.185ZM426.025 24.288C425.705 27.216 425.081 29.984 423.833 31.744C424.169 32.176 424.681 33.152 424.857 33.6C426.489 31.424 427.353 28.032 427.833 24.576L426.025 24.288ZM425.433 28.064V36.752H426.985V28.064H425.433ZM449.193 23.696C448.953 25.696 448.473 27.904 445.881 29.136C446.265 29.44 446.761 30.064 446.969 30.496C449.913 28.944 450.617 26.304 450.921 23.696H449.193ZM446.425 26.432C447.993 26.928 449.897 27.872 450.937 28.624L451.849 27.152C450.777 26.464 448.905 25.584 447.321 25.104L446.425 26.432ZM452.841 23.04V23.328C452.729 26.688 452.585 27.904 452.329 28.208C452.201 28.368 452.057 28.416 451.849 28.4C451.609 28.4 451.129 28.4 450.585 28.352C450.841 28.816 451.033 29.536 451.049 30.064C451.753 30.08 452.409 30.08 452.793 30.016C453.257 29.952 453.561 29.808 453.865 29.408C454.297 28.896 454.457 27.392 454.617 23.744C454.633 23.52 454.633 23.04 454.633 23.04H452.841ZM448.185 31.664V35.2C448.185 36.8 448.489 37.328 449.977 37.328C450.281 37.328 451.017 37.328 451.305 37.328C452.457 37.328 452.921 36.784 453.097 34.672C452.617 34.544 451.865 34.272 451.529 33.984C451.481 35.472 451.417 35.664 451.113 35.664C450.953 35.664 450.425 35.664 450.281 35.664C449.977 35.664 449.945 35.616 449.945 35.168V31.664H448.185ZM446.553 32.288C446.409 33.6 446.089 34.928 445.433 35.728L446.841 36.592C447.609 35.648 447.913 34.128 448.057 32.688L446.553 32.288ZM448.537 30.56C449.561 31.152 450.777 32.064 451.337 32.72L452.521 31.472C451.929 30.8 450.665 29.968 449.641 29.456L448.537 30.56ZM452.073 32.544C452.857 33.776 453.513 35.472 453.689 36.592L455.369 35.904C455.161 34.768 454.457 33.136 453.625 31.92L452.073 32.544ZM446.633 23.04V24.64H453.657V23.04H446.633ZM440.825 27.328V28.768H445.513V27.328H440.825ZM440.873 22.912V24.368H445.465V22.912H440.873ZM440.825 29.504V30.96H445.513V29.504H440.825ZM440.089 25.072V26.592H445.945V25.072H440.089ZM441.657 31.728V33.248H443.929V35.072H441.657V36.592H445.529V31.728H441.657ZM440.793 31.728V37.232H442.361V31.728H440.793Z" fill="black"/>
<g filter="url(#filter2_d_1009_12544)">
<mask id="path-8-inside-3_1009_12544" fill="white">
<path fill-rule="evenodd" clip-rule="evenodd" d="M496.92 6.98456C495.396 4.31793 497.321 1 500.393 1H683.5C685.709 1 687.5 2.79086 687.5 5V53C687.5 55.2091 685.709 57 683.5 57H500.393C497.321 57 495.396 53.6821 496.92 51.0154L508.366 30.9846C509.069 29.7548 509.069 28.2452 508.366 27.0154L496.92 6.98456Z"/>
</mask>
<path fill-rule="evenodd" clip-rule="evenodd" d="M496.92 6.98456C495.396 4.31793 497.321 1 500.393 1H683.5C685.709 1 687.5 2.79086 687.5 5V53C687.5 55.2091 685.709 57 683.5 57H500.393C497.321 57 495.396 53.6821 496.92 51.0154L508.366 30.9846C509.069 29.7548 509.069 28.2452 508.366 27.0154L496.92 6.98456Z" fill="white"/>
<path d="M508.366 30.9846L507.498 30.4884L507.498 30.4884L508.366 30.9846ZM508.366 27.0154L507.498 27.5116L507.498 27.5116L508.366 27.0154ZM496.92 51.0154L496.051 50.5193L496.92 51.0154ZM496.92 6.98456L496.051 7.48069L496.92 6.98456ZM683.5 0H500.393V2H683.5V0ZM688.5 53V5H686.5V53H688.5ZM500.393 58H683.5V56H500.393V58ZM507.498 30.4884L496.051 50.5193L497.788 51.5116L509.234 31.4807L507.498 30.4884ZM507.498 27.5116C508.025 28.4339 508.025 29.5661 507.498 30.4884L509.234 31.4807C510.113 29.9435 510.113 28.0565 509.234 26.5193L507.498 27.5116ZM496.051 7.48069L507.498 27.5116L509.234 26.5193L497.788 6.48842L496.051 7.48069ZM500.393 56C498.089 56 496.645 53.5116 497.788 51.5116L496.051 50.5193C494.147 53.8526 496.554 58 500.393 58V56ZM686.5 53C686.5 54.6569 685.157 56 683.5 56V58C686.261 58 688.5 55.7614 688.5 53H686.5ZM500.393 0C496.554 0 494.147 4.14741 496.051 7.48069L497.788 6.48842C496.645 4.48844 498.089 2 500.393 2V0ZM683.5 2C685.157 2 686.5 3.34315 686.5 5H688.5C688.5 2.23858 686.261 0 683.5 0V2Z" fill="black" fill-opacity="0.08" mask="url(#path-8-inside-3_1009_12544)"/>
</g>
<path d="M533.5 37.472C537.628 37.472 541.036 34.128 541.036 29.92C541.036 25.76 537.66 22.384 533.5 22.384C529.324 22.384 525.948 25.76 525.948 29.92C525.948 34.096 529.324 37.472 533.5 37.472ZM533.5 36.88C529.66 36.88 526.54 33.76 526.54 29.92C526.54 26.112 529.628 22.976 533.5 22.976C537.34 22.976 540.444 26.08 540.444 29.92C540.444 33.76 537.34 36.88 533.5 36.88ZM533.324 34.24C535.18 34.24 536.732 33.344 536.732 31.776C536.732 30.688 535.948 30 534.876 29.712V29.664C535.852 29.264 536.428 28.656 536.428 27.808C536.428 26.288 535.164 25.456 533.276 25.456C532.172 25.456 531.228 25.856 530.412 26.544L531.436 27.792C531.996 27.296 532.572 27.024 533.212 27.024C533.98 27.024 534.396 27.36 534.396 27.936C534.396 28.608 533.82 29.04 532.14 29.04V30.48C534.172 30.48 534.668 30.912 534.668 31.632C534.668 32.256 534.092 32.64 533.276 32.64C532.348 32.64 531.628 32.256 531.068 31.76L530.124 33.04C530.796 33.776 531.964 34.24 533.324 34.24ZM548.933 26.96V28.688H557.237V26.96H548.933ZM545.957 29.84V31.648H560.293V29.84H545.957ZM549.829 31.28C549.589 33.472 549.157 34.96 545.493 35.776C545.925 36.176 546.421 36.976 546.613 37.488C550.837 36.368 551.605 34.256 551.909 31.28H549.829ZM553.957 30.976V34.912C553.957 36.64 554.405 37.2 556.277 37.2C556.645 37.2 557.957 37.2 558.325 37.2C559.845 37.2 560.357 36.592 560.549 34.256C560.053 34.128 559.221 33.824 558.837 33.52C558.773 35.2 558.677 35.472 558.149 35.472C557.845 35.472 556.805 35.472 556.549 35.472C555.989 35.472 555.893 35.392 555.893 34.88V30.976H553.957ZM552.053 22.432V25.328H554.101V22.432H552.053ZM546.245 23.968V27.776H548.197V25.776H557.925V27.776H559.989V23.968H546.245ZM568.197 27.888V35.168C568.197 35.44 568.069 35.536 567.717 35.536C567.349 35.536 566.037 35.536 564.901 35.488C565.205 36.016 565.573 36.88 565.685 37.44C567.221 37.44 568.373 37.408 569.157 37.12C569.957 36.832 570.229 36.304 570.229 35.216V27.888H568.197ZM562.725 23.536V25.424H573.909V23.536H562.725ZM573.189 23.536V24C572.389 25.216 570.501 27.136 568.837 28.192C569.221 28.496 569.845 29.136 570.149 29.552C572.117 28.32 574.229 26.288 575.669 24.528L574.165 23.408L573.701 23.536H573.189Z" fill="black"/>
<defs>
<filter id="filter0_d_1009_12544" x="0" y="0" width="301.393" height="60" filterUnits="userSpaceOnUse" color-interpolation-filters="sRGB">
<feFlood flood-opacity="0" result="BackgroundImageFix"/>
<feColorMatrix in="SourceAlpha" type="matrix" values="0 0 0 0 0 0 0 0 0 0 0 0 0 0 0 0 0 0 127 0" result="hardAlpha"/>
<feOffset dy="1"/>
<feGaussianBlur stdDeviation="1"/>
<feColorMatrix type="matrix" values="0 0 0 0 0.215686 0 0 0 0 0.254902 0 0 0 0 0.317647 0 0 0 0.08 0"/>
<feBlend mode="normal" in2="BackgroundImageFix" result="effect1_dropShadow_1009_12544"/>
<feBlend mode="normal" in="SourceGraphic" in2="effect1_dropShadow_1009_12544" result="shape"/>
</filter>
<filter id="filter1_d_1009_12544" x="292.887" y="0" width="210.506" height="60" filterUnits="userSpaceOnUse" color-interpolation-filters="sRGB">
<feFlood flood-opacity="0" result="BackgroundImageFix"/>
<feColorMatrix in="SourceAlpha" type="matrix" values="0 0 0 0 0 0 0 0 0 0 0 0 0 0 0 0 0 0 127 0" result="hardAlpha"/>
<feOffset dy="1"/>
<feGaussianBlur stdDeviation="1"/>
<feColorMatrix type="matrix" values="0 0 0 0 0.215686 0 0 0 0 0.254902 0 0 0 0 0.317647 0 0 0 0.08 0"/>
<feBlend mode="normal" in2="BackgroundImageFix" result="effect1_dropShadow_1009_12544"/>
<feBlend mode="normal" in="SourceGraphic" in2="effect1_dropShadow_1009_12544" result="shape"/>
</filter>
<filter id="filter2_d_1009_12544" x="494.387" y="0" width="195.113" height="60" filterUnits="userSpaceOnUse" color-interpolation-filters="sRGB">
<feFlood flood-opacity="0" result="BackgroundImageFix"/>
<feColorMatrix in="SourceAlpha" type="matrix" values="0 0 0 0 0 0 0 0 0 0 0 0 0 0 0 0 0 0 127 0" result="hardAlpha"/>
<feOffset dy="1"/>
<feGaussianBlur stdDeviation="1"/>
<feColorMatrix type="matrix" values="0 0 0 0 0.215686 0 0 0 0 0.254902 0 0 0 0 0.317647 0 0 0 0.08 0"/>
<feBlend mode="normal" in2="BackgroundImageFix" result="effect1_dropShadow_1009_12544"/>
<feBlend mode="normal" in="SourceGraphic" in2="effect1_dropShadow_1009_12544" result="shape"/>
</filter>
</defs>
</svg>
